<?xml version="1.0" encoding="UTF-8" standalone="no"?>
<!-- Created with Inkscape (http://www.inkscape.org/) -->

<svg
   xmlns:ns0="http://www.iki.fi/pav/software/textext/"
   xmlns:dc="http://purl.org/dc/elements/1.1/"
   xmlns:cc="http://creativecommons.org/ns#"
   xmlns:rdf="http://www.w3.org/1999/02/22-rdf-syntax-ns#"
   xmlns:svg="http://www.w3.org/2000/svg"
   xmlns="http://www.w3.org/2000/svg"
   xmlns:sodipodi="http://sodipodi.sourceforge.net/DTD/sodipodi-0.dtd"
   xmlns:inkscape="http://www.inkscape.org/namespaces/inkscape"
   width="210mm"
   height="297mm"
   viewBox="0 0 744.09448819 1052.3622047"
   id="svg2"
   version="1.1"
   inkscape:version="0.91 r13725"
   sodipodi:docname="Grundlagen.svg">
  <sodipodi:namedview
     id="base"
     pagecolor="#ffffff"
     bordercolor="#666666"
     borderopacity="1.0"
     inkscape:pageopacity="0.0"
     inkscape:pageshadow="2"
     inkscape:zoom="0.98994949"
     inkscape:cx="241.81312"
     inkscape:cy="860.46647"
     inkscape:document-units="px"
     inkscape:current-layer="layer1"
     showgrid="true"
     inkscape:window-width="1205"
     inkscape:window-height="697"
     inkscape:window-x="67"
     inkscape:window-y="-8"
     inkscape:window-maximized="1"
     inkscape:snap-bbox="true"
     inkscape:bbox-nodes="true"
     inkscape:bbox-paths="true"
     inkscape:snap-bbox-edge-midpoints="true"
     inkscape:snap-bbox-midpoints="true">
    <inkscape:grid
       id="grid4205"
       type="xygrid" />
  </sodipodi:namedview>
  <defs
     id="defs4" />
  <metadata
     id="metadata7">
    <rdf:RDF>
      <cc:Work
         rdf:about="">
        <dc:format>image/svg+xml</dc:format>
        <dc:type
           rdf:resource="http://purl.org/dc/dcmitype/StillImage" />
        <dc:title />
      </cc:Work>
    </rdf:RDF>
  </metadata>
  <g
     inkscape:label="Ebene 1"
     inkscape:groupmode="layer"
     id="layer1">
    <text
       xml:space="preserve"
       style="font-style:normal;font-weight:normal;font-size:15px;line-height:125%;font-family:sans-serif;letter-spacing:0px;word-spacing:0px;writing-mode:lr-tb;fill:#008000;fill-opacity:1;stroke:none;stroke-width:1px;stroke-linecap:butt;stroke-linejoin:miter;stroke-opacity:1"
       x="168.8147"
       y="36.500389"
       id="text4136"
       sodipodi:linespacing="125%"><tspan
         sodipodi:role="line"
         id="tspan4138"
         x="168.8147"
         y="36.500389">ein Algorithmus heißt </tspan></text>
    <text
       xml:space="preserve"
       style="font-style:normal;font-variant:normal;font-weight:normal;font-stretch:normal;font-size:15px;line-height:125%;font-family:sans-serif;-inkscape-font-specification:sans-serif;text-align:center;letter-spacing:0px;word-spacing:0px;writing-mode:lr-tb;text-anchor:middle;fill:#008000;fill-opacity:1;stroke:none;stroke-width:1px;stroke-linecap:butt;stroke-linejoin:miter;stroke-opacity:1;"
       x="129.59351"
       y="63.75869"
       id="text4140"
       sodipodi:linespacing="125%"><tspan
         sodipodi:role="line"
         id="tspan4142"
         x="131.9812"
         y="63.75869"><tspan
           id="tspan4174"
           style="font-style:italic;font-variant:normal;font-weight:normal;font-stretch:normal;font-family:sans-serif;-inkscape-font-specification:'sans-serif Italic';text-align:center;text-anchor:middle;fill:#008000;">partiell korrekt</tspan></tspan><tspan
         id="tspan4197"
         sodipodi:role="line"
         x="129.59351"
         y="82.50869">:⇔ terminiert der Alg.,</tspan><tspan
         id="tspan4199"
         sodipodi:role="line"
         x="131.9812"
         y="101.25869">so liefert er korrektes Ergebnis </tspan></text>
    <text
       xml:space="preserve"
       style="font-style:normal;font-variant:normal;font-weight:normal;font-stretch:normal;font-size:15px;line-height:125%;font-family:sans-serif;-inkscape-font-specification:sans-serif;text-align:center;letter-spacing:0px;word-spacing:0px;writing-mode:lr-tb;text-anchor:middle;fill:#008000;fill-opacity:1;stroke:none;stroke-width:1px;stroke-linecap:butt;stroke-linejoin:miter;stroke-opacity:1;"
       x="359.3042"
       y="63.75869"
       id="text4140-2"
       sodipodi:linespacing="125%"><tspan
         sodipodi:role="line"
         id="tspan4142-0"
         x="361.69189"
         y="63.75869"><tspan
           id="tspan4174-9"
           style="font-style:italic;font-variant:normal;font-weight:normal;font-stretch:normal;font-family:sans-serif;-inkscape-font-specification:'sans-serif Italic';text-align:center;text-anchor:middle;fill:#008000;">total korrekt</tspan></tspan><tspan
         id="tspan4201"
         sodipodi:role="line"
         x="359.3042"
         y="82.50869">:⇔ Alg. ist partiell korrekt</tspan><tspan
         id="tspan4203"
         sodipodi:role="line"
         x="359.3042"
         y="101.25869">und terminiert immer</tspan></text>
    <text
       sodipodi:linespacing="125%"
       id="text4207"
       y="127.95425"
       x="208.22632"
       style="font-style:normal;font-weight:normal;font-size:15px;line-height:125%;font-family:sans-serif;letter-spacing:0px;word-spacing:0px;writing-mode:lr-tb;fill:#000000;fill-opacity:1;stroke:none;stroke-width:1px;stroke-linecap:butt;stroke-linejoin:miter;stroke-opacity:1"
       xml:space="preserve"><tspan
         y="127.95425"
         x="208.22632"
         id="tspan4209"
         sodipodi:role="line">Beweis mit</tspan></text>
    <text
       sodipodi:linespacing="125%"
       id="text4211"
       y="196.87758"
       x="239.35547"
       style="font-style:normal;font-weight:normal;font-size:15px;line-height:125%;font-family:sans-serif;letter-spacing:0px;word-spacing:0px;writing-mode:lr-tb;fill:#0000ff;fill-opacity:1;stroke:none;stroke-width:1px;stroke-linecap:butt;stroke-linejoin:miter;stroke-opacity:1;text-anchor:middle;text-align:center;"
       xml:space="preserve"><tspan
         y="196.87758"
         x="122.76855"
         id="tspan4213"
         sodipodi:role="line">z.B. für Schleife  <tspan
   id="tspan4215"
   style="font-style:normal;font-variant:normal;font-weight:normal;font-stretch:normal;font-family:monospace;-inkscape-font-specification:monospace;text-anchor:middle;text-align:center;fill:#0000ff;">while(B) {S}</tspan></tspan></text>
    <g
       id="g4975"
       transform="matrix(1.600000,   0,   0,  -1.600000, 109.007244, 1662.349102)"
       xml:space="preserve"
       stroke="black"
       stroke-linecap="butt"
       stroke-linejoin="miter"
       stroke-miterlimit="10.433"
       stroke-dasharray="none"
       stroke-dashoffset="0"
       stroke-opacity="1"
       fill="black"
       fill-rule="evenodd"
       fill-opacity="1"
       font-style="normal"
       font-variant="normal"
       font-weight="normal"
       font-stretch="normal"
       font-size-adjust="none"
       letter-spacing="normal"
       word-spacing="normal"
       text-anchor="start"
       ns0:text="$1+2 \\mathcal{R}$\n\n"
       ns0:preamble=""><path
         d="M151.64,713.48 L151.64,713.49 L151.64,713.5 L151.64,713.52 L151.64,713.53 L151.64,713.53 L151.64,713.54 L151.64,713.55 L151.64,713.56 L151.64,713.57 L151.64,713.58 L151.64,713.59 L151.64,713.6 L151.64,713.6 L151.64,713.61 L151.64,713.62 L151.64,713.62 L151.64,713.63 L151.64,713.64 L151.64,713.65 L151.63,713.66 L151.63,713.67 L151.63,713.68 L151.62,713.69 L151.62,713.69 L151.62,713.7 L151.61,713.71 L151.6,713.71 L151.6,713.72 L151.59,713.72 L151.58,713.73 L151.57,713.73 L151.57,713.73 L151.56,713.73 L151.56,713.73 L151.55,713.73 L151.55,713.73 L151.54,713.74 L151.53,713.74 L151.53,713.74 L151.52,713.74 L151.51,713.74 L151.51,713.74 L151.5,713.74 L151.49,713.74 L151.48,713.74 L151.47,713.74 L151.46,713.74 L151.45,713.74 L151.44,713.74 L151.43,713.74 L151.42,713.74 L151.41,713.74 C150.8,713.1,149.92,713.1,149.6,713.1 V712.8 C149.8,712.8,150.39,712.8,150.91,713.05 V707.91 C150.91,707.55,150.88,707.43,149.98,707.43 H149.66 V707.13 C150.01,707.16,150.88,707.16,151.27,707.16 C151.67,707.16,152.54,707.16,152.89,707.13 V707.43 H152.57 C151.67,707.43,151.64,707.54,151.64,707.91 Z "
         stroke-width="0"
         fill="black"
         fill-opacity="1"
         fill-rule="evenodd"
         font-size-adjust="none"
         font-stretch="normal"
         font-style="normal"
         font-variant="normal"
         font-weight="normal"
         letter-spacing="normal"
         stroke="black"
         stroke-dasharray="none"
         stroke-linecap="butt"
         stroke-linejoin="miter"
         stroke-miterlimit="10.433"
         stroke-opacity="1"
         text-anchor="start"
         word-spacing="normal"
         id="path4977" /><path
         d="M159.98,709.41 H162.77 C162.9,709.41,163.1,709.41,163.1,709.61 C163.1,709.81,162.9,709.81,162.77,709.81 H159.98 V712.59 C159.98,712.73,159.98,712.92,159.78,712.92 C159.59,712.92,159.59,712.73,159.59,712.59 V709.81 H156.79 C156.65,709.81,156.46,709.81,156.46,709.61 C156.46,709.41,156.65,709.41,156.79,709.41 H159.59 V706.63 C159.59,706.49,159.59,706.3,159.78,706.3 C159.98,706.3,159.98,706.49,159.98,706.63 Z "
         stroke-width="0"
         fill="black"
         fill-opacity="1"
         fill-rule="evenodd"
         font-size-adjust="none"
         font-stretch="normal"
         font-style="normal"
         font-variant="normal"
         font-weight="normal"
         letter-spacing="normal"
         stroke="black"
         stroke-dasharray="none"
         stroke-linecap="butt"
         stroke-linejoin="miter"
         stroke-miterlimit="10.433"
         stroke-opacity="1"
         text-anchor="start"
         word-spacing="normal"
         id="path4979" /><path
         d="M167.13,707.89 L168.19,708.91 C169.74,710.28,170.34,710.82,170.34,711.81 C170.34,712.95,169.45,713.74,168.23,713.74 C167.1,713.74,166.36,712.83,166.36,711.94 C166.36,711.39,166.86,711.39,166.89,711.39 C167.06,711.39,167.41,711.51,167.41,711.91 C167.41,712.17,167.23,712.43,166.88,712.43 C166.8,712.43,166.78,712.43,166.75,712.42 C166.98,713.07,167.52,713.43,168.1,713.43 C169.01,713.43,169.44,712.63,169.44,711.81 C169.44,711.02,168.94,710.23,168.39,709.62 L166.47,707.49 C166.36,707.38,166.36,707.36,166.36,707.13 H170.06 L170.34,708.85 H170.09 C170.04,708.55,169.97,708.12,169.87,707.97 C169.8,707.89,169.15,707.89,168.93,707.89 Z "
         stroke-width="0"
         fill="black"
         fill-opacity="1"
         fill-rule="evenodd"
         font-size-adjust="none"
         font-stretch="normal"
         font-style="normal"
         font-variant="normal"
         font-weight="normal"
         letter-spacing="normal"
         stroke="black"
         stroke-dasharray="none"
         stroke-linecap="butt"
         stroke-linejoin="miter"
         stroke-miterlimit="10.433"
         stroke-opacity="1"
         text-anchor="start"
         word-spacing="normal"
         id="path4981" /><path
         d="M174.89,713.36 L174.98,713.36 L175.07,713.36 L175.15,713.36 L175.23,713.36 L175.31,713.35 L175.39,713.35 L175.47,713.35 L175.54,713.34 L175.62,713.34 L175.69,713.33 L175.82,713.32 L175.95,713.3 L176.07,713.28 L176.19,713.26 L176.3,713.23 L176.4,713.21 L176.49,713.18 L176.58,713.15 L176.67,713.12 L176.74,713.08 L176.81,713.05 L176.88,713.01 L176.94,712.97 L176.99,712.93 L177.04,712.88 L177.09,712.84 L177.13,712.79 L177.16,712.74 L177.2,712.69 L177.22,712.64 L177.24,712.59 L177.26,712.53 L177.28,712.48 L177.29,712.42 L177.3,712.36 L177.3,712.3 L177.3,712.24 C177.3,711.64,176.82,710.44,175.18,710.38 C174.69,710.36,174.35,710.02,174.35,709.91 C174.35,709.85,174.39,709.85,174.4,709.85 C174.82,709.78,175.02,709.58,175.54,708.41 C176,707.36,176.26,706.91,176.84,706.91 C178.05,706.91,179.2,708.13,179.2,708.35 C179.2,708.42,179.12,708.42,179.09,708.42 C178.97,708.42,178.58,708.28,178.37,707.99 C178.21,707.76,177.99,707.45,177.5,707.45 C176.99,707.45,176.68,708.16,176.35,708.93 C176.14,709.43,175.96,709.8,175.73,710.07 C177.17,710.59,178.15,711.64,178.15,712.67 C178.15,713.91,176.48,713.91,174.97,713.91 C173.97,713.91,173.41,713.91,172.58,713.55 C171.24,712.97,171.06,712.14,171.06,712.06 C171.06,712,171.1,711.98,171.16,711.98 C171.32,711.98,171.55,712.12,171.63,712.17 C171.84,712.31,171.87,712.37,171.93,712.56 C172.07,712.96,172.35,713.3,173.6,713.36 C173.55,712.76,173.46,711.83,173.13,710.38 C172.85,709.27,172.49,708.18,172.05,707.11 C172,707.01,172,706.99,172,706.98 C172,706.91,172.08,706.91,172.1,706.91 C172.3,706.91,172.72,707.15,172.83,707.33 C172.85,707.38,174.11,710.18,174.42,713.36 Z "
         stroke-width="0"
         fill="black"
         fill-opacity="1"
         fill-rule="evenodd"
         font-size-adjust="none"
         font-stretch="normal"
         font-style="normal"
         font-variant="normal"
         font-weight="normal"
         letter-spacing="normal"
         stroke="black"
         stroke-dasharray="none"
         stroke-linecap="butt"
         stroke-linejoin="miter"
         stroke-miterlimit="10.433"
         stroke-opacity="1"
         text-anchor="start"
         word-spacing="normal"
         id="path4983" /></g>    <g
       style="font-style:normal;font-variant:normal;font-weight:normal;font-stretch:normal;letter-spacing:normal;word-spacing:normal;text-anchor:start;fill:#008000;fill-opacity:1;fill-rule:evenodd;stroke:#000000;stroke-linecap:butt;stroke-linejoin:miter;stroke-miterlimit:10.43299961;stroke-dasharray:none;stroke-dashoffset:0;stroke-opacity:1"
       ns0:preamble="C:\\Users\\Lukas\\Dropbox\\Studium\\Vorlesungszusammenfassungen\\Informatik III\\info3_preamble.tex"
       ns0:text="Sei $f: \\IN_0 \\to \\IN$. Dann is\n\\begin{itemize}\n\\item $\\mathcal{O}(f) := \\left\\lbrace g: \\IN \\to \\IN \\mid \\exists \\dots \\right\\rbrace$\n\\end{itemize}\n\n\n\n\n\n\n\n\n"
       text-anchor="start"
       word-spacing="normal"
       letter-spacing="normal"
       font-size-adjust="none"
       font-stretch="normal"
       font-weight="normal"
       font-variant="normal"
       font-style="normal"
       fill-opacity="1"
       fill-rule="evenodd"
       fill="black"
       stroke-opacity="1"
       stroke-dashoffset="0"
       stroke-dasharray="none"
       stroke-miterlimit="10.433"
       stroke-linejoin="miter"
       stroke-linecap="butt"
       stroke="black"
       xml:space="preserve"
       transform="matrix(1.600000,  0,  0,  -1.600000, 261.784010, 1164.642200)"
       id="content"><path
         id="path4227"
         style="font-style:normal;font-variant:normal;font-weight:normal;font-stretch:normal;letter-spacing:normal;word-spacing:normal;text-anchor:start;fill:#008000;fill-opacity:1;fill-rule:evenodd;stroke:#000000;stroke-linecap:butt;stroke-linejoin:miter;stroke-miterlimit:10.43299961;stroke-dasharray:none;stroke-dashoffset:0;stroke-opacity:1"
         word-spacing="normal"
         stroke-miterlimit="10.433"
         letter-spacing="normal"
         font-weight="normal"
         font-variant="normal"
         font-style="normal"
         font-stretch="normal"
         font-size-adjust="none"
         fill="black"
         stroke-width="0"
         d="M153.35,713.74 L153.25,713.8 L153.14,713.86 L153.04,713.91 L152.94,713.96 L152.83,714 L152.72,714.04 L152.61,714.08 L152.5,714.11 L152.39,714.14 L152.28,714.17 L152.16,714.19 L152.04,714.21 L151.92,714.22 L151.79,714.23 L151.66,714.24 L151.59,714.24 L151.52,714.24 C150.14,714.24,149.27,713.26,149.27,712.28 C149.27,711.85,149.41,711.44,149.81,711.02 C150.23,710.57,150.67,710.45,151.26,710.31 C152.1,710.1,152.2,710.08,152.48,709.83 C152.68,709.66,152.9,709.33,152.9,708.9 C152.9,708.25,152.35,707.59,151.44,707.59 C151.04,707.59,150.14,707.69,149.3,708.4 L149.15,707.59 C150.03,707.05,150.83,706.91,151.45,706.91 C152.77,706.91,153.69,707.91,153.69,709 C153.69,709.65,153.38,710.13,153.16,710.36 C152.69,710.86,152.36,710.95,151.44,711.18 C150.87,711.32,150.71,711.36,150.41,711.61 C150.34,711.67,150.06,711.96,150.06,712.4 C150.06,712.99,150.6,713.58,151.51,713.58 C152.35,713.58,152.83,713.25,153.2,712.95 Z " /><path
         id="path4229"
         style="font-style:normal;font-variant:normal;font-weight:normal;font-stretch:normal;letter-spacing:normal;word-spacing:normal;text-anchor:start;fill:#008000;fill-opacity:1;fill-rule:evenodd;stroke:#000000;stroke-linecap:butt;stroke-linejoin:miter;stroke-miterlimit:10.43299961;stroke-dasharray:none;stroke-dashoffset:0;stroke-opacity:1"
         word-spacing="normal"
         stroke-miterlimit="10.433"
         letter-spacing="normal"
         font-weight="normal"
         font-variant="normal"
         font-style="normal"
         font-stretch="normal"
         font-size-adjust="none"
         fill="black"
         stroke-width="0"
         d="M158.38,709.3 L158.38,709.33 L158.38,709.37 L158.38,709.41 L158.37,709.44 L158.37,709.49 L158.37,709.53 L158.37,709.57 L158.37,709.62 L158.37,709.67 L158.36,709.72 L158.36,709.77 L158.35,709.82 L158.35,709.88 L158.34,709.93 L158.33,709.99 L158.32,710.04 L158.31,710.1 L158.3,710.16 L158.29,710.22 L158.27,710.27 L158.26,710.33 L158.24,710.39 L158.22,710.45 L158.2,710.51 L158.18,710.57 L158.16,710.63 L158.13,710.69 L158.11,710.75 L158.08,710.81 L158.05,710.87 L158.01,710.92 L157.98,710.98 C157.57,711.59,156.96,711.71,156.6,711.71 C155.49,711.71,154.6,710.65,154.6,709.37 C154.6,708.06,155.55,707.02,156.75,707.02 C157.38,707.02,157.95,707.25,158.34,707.53 L158.28,708.18 C157.65,707.66,156.99,707.62,156.76,707.62 C155.96,707.62,155.32,708.33,155.29,709.3 L155.34,709.85 C155.5,710.6,156.03,711.1,156.6,711.1 C157.12,711.1,157.68,710.76,157.81,709.85 H155.34 L155.29,709.3 Z " /><polygon
         id="polygon4231"
         style="font-style:normal;font-variant:normal;font-weight:normal;font-stretch:normal;letter-spacing:normal;word-spacing:normal;text-anchor:start;fill:#008000;fill-opacity:1;fill-rule:evenodd;stroke:#000000;stroke-linecap:butt;stroke-linejoin:miter;stroke-miterlimit:10.43299961;stroke-dasharray:none;stroke-dashoffset:0;stroke-opacity:1"
         word-spacing="normal"
         stroke-miterlimit="10.433"
         letter-spacing="normal"
         font-weight="normal"
         font-variant="normal"
         font-style="normal"
         font-stretch="normal"
         font-size-adjust="none"
         fill="black"
         stroke-width="0"
         points="160.3,713.88 159.41,713.88 159.41,713 160.3,713 " /><polygon
         id="polygon4233"
         style="font-style:normal;font-variant:normal;font-weight:normal;font-stretch:normal;letter-spacing:normal;word-spacing:normal;text-anchor:start;fill:#008000;fill-opacity:1;fill-rule:evenodd;stroke:#000000;stroke-linecap:butt;stroke-linejoin:miter;stroke-miterlimit:10.43299961;stroke-dasharray:none;stroke-dashoffset:0;stroke-opacity:1"
         word-spacing="normal"
         stroke-miterlimit="10.433"
         letter-spacing="normal"
         font-weight="normal"
         font-variant="normal"
         font-style="normal"
         font-stretch="normal"
         font-size-adjust="none"
         fill="black"
         stroke-width="0"
         points="160.23,711.54 159.48,711.54 159.48,707.13 160.23,707.13 " /><path
         id="path4235"
         style="font-style:normal;font-variant:normal;font-weight:normal;font-stretch:normal;letter-spacing:normal;word-spacing:normal;text-anchor:start;fill:#008000;fill-opacity:1;fill-rule:evenodd;stroke:#000000;stroke-linecap:butt;stroke-linejoin:miter;stroke-miterlimit:10.43299961;stroke-dasharray:none;stroke-dashoffset:0;stroke-opacity:1"
         word-spacing="normal"
         stroke-miterlimit="10.433"
         letter-spacing="normal"
         font-weight="normal"
         font-variant="normal"
         font-style="normal"
         font-stretch="normal"
         font-size-adjust="none"
         fill="black"
         stroke-width="0"
         d="M168.04,711.1 H168.89 C169.09,711.1,169.19,711.1,169.19,711.3 C169.19,711.41,169.09,711.41,168.92,711.41 H168.1 L168.3,712.54 C168.35,712.75,168.48,713.45,168.54,713.57 C168.63,713.76,168.8,713.91,169.01,713.91 C169.05,713.91,169.31,713.91,169.5,713.73 C169.06,713.69,168.96,713.34,168.96,713.2 C168.96,712.97,169.14,712.85,169.33,712.85 C169.59,712.85,169.88,713.07,169.88,713.44 C169.88,713.9,169.42,714.13,169.01,714.13 C168.67,714.13,168.05,713.95,167.75,712.97 C167.69,712.76,167.66,712.66,167.42,711.41 H166.73 C166.54,711.41,166.43,711.41,166.43,711.22 C166.43,711.1,166.52,711.1,166.71,711.1 H167.37 L166.62,707.17 C166.44,706.21,166.27,705.31,165.75,705.31 C165.71,705.31,165.46,705.31,165.27,705.49 C165.73,705.52,165.82,705.87,165.82,706.02 C165.82,706.25,165.64,706.37,165.45,706.37 C165.19,706.37,164.9,706.15,164.9,705.77 C164.9,705.33,165.34,705.09,165.75,705.09 C166.3,705.09,166.7,705.67,166.88,706.05 C167.2,706.68,167.43,707.88,167.44,707.95 Z " /><path
         id="path4237"
         style="font-style:normal;font-variant:normal;font-weight:normal;font-stretch:normal;letter-spacing:normal;word-spacing:normal;text-anchor:start;fill:#008000;fill-opacity:1;fill-rule:evenodd;stroke:#000000;stroke-linecap:butt;stroke-linejoin:miter;stroke-miterlimit:10.43299961;stroke-dasharray:none;stroke-dashoffset:0;stroke-opacity:1"
         word-spacing="normal"
         stroke-miterlimit="10.433"
         letter-spacing="normal"
         font-weight="normal"
         font-variant="normal"
         font-style="normal"
         font-stretch="normal"
         font-size-adjust="none"
         fill="black"
         stroke-width="0"
         d="M175.01,710.88 L175.01,710.91 L175.01,710.93 L175,710.96 L175,710.99 L174.99,711.01 L174.98,711.04 L174.98,711.06 L174.97,711.08 L174.96,711.11 L174.94,711.13 L174.93,711.15 L174.92,711.17 L174.9,711.19 L174.89,711.21 L174.87,711.23 L174.85,711.25 L174.83,711.27 L174.81,711.29 L174.79,711.3 L174.77,711.32 L174.75,711.33 L174.73,711.34 L174.71,711.35 L174.68,711.36 L174.66,711.37 L174.64,711.38 L174.61,711.39 L174.58,711.4 L174.56,711.4 L174.53,711.4 L174.51,711.41 L174.48,711.41 C174.19,711.41,173.95,711.17,173.95,710.88 C173.95,710.59,174.19,710.35,174.48,710.35 C174.77,710.35,175.01,710.59,175.01,710.88 Z " /><path
         id="path4239"
         style="font-style:normal;font-variant:normal;font-weight:normal;font-stretch:normal;letter-spacing:normal;word-spacing:normal;text-anchor:start;fill:#008000;fill-opacity:1;fill-rule:evenodd;stroke:#000000;stroke-linecap:butt;stroke-linejoin:miter;stroke-miterlimit:10.43299961;stroke-dasharray:none;stroke-dashoffset:0;stroke-opacity:1"
         word-spacing="normal"
         stroke-miterlimit="10.433"
         letter-spacing="normal"
         font-weight="normal"
         font-variant="normal"
         font-style="normal"
         font-stretch="normal"
         font-size-adjust="none"
         fill="black"
         stroke-width="0"
         d="M175.01,707.65 L175.01,707.68 L175.01,707.7 L175,707.73 L175,707.76 L174.99,707.78 L174.98,707.81 L174.98,707.83 L174.97,707.86 L174.96,707.88 L174.94,707.9 L174.93,707.92 L174.92,707.94 L174.9,707.97 L174.89,707.99 L174.87,708 L174.85,708.02 L174.83,708.04 L174.81,708.06 L174.79,708.07 L174.77,708.09 L174.75,708.1 L174.73,708.11 L174.71,708.13 L174.68,708.14 L174.66,708.15 L174.64,708.15 L174.61,708.16 L174.58,708.17 L174.56,708.17 L174.53,708.18 L174.51,708.18 L174.48,708.18 C174.19,708.18,173.95,707.94,173.95,707.65 C173.95,707.36,174.19,707.13,174.48,707.13 C174.77,707.13,175.01,707.36,175.01,707.65 Z " /><path
         id="path4241"
         style="font-style:normal;font-variant:normal;font-weight:normal;font-stretch:normal;letter-spacing:normal;word-spacing:normal;text-anchor:start;fill:#008000;fill-opacity:1;fill-rule:evenodd;stroke:#000000;stroke-linecap:butt;stroke-linejoin:miter;stroke-miterlimit:10.43299961;stroke-dasharray:none;stroke-dashoffset:0;stroke-opacity:1"
         word-spacing="normal"
         stroke-miterlimit="10.433"
         letter-spacing="normal"
         font-weight="normal"
         font-variant="normal"
         font-style="normal"
         font-stretch="normal"
         font-size-adjust="none"
         fill="black"
         stroke-width="0"
         d="M179.74,713.04 V708.19 C179.74,707.66,179.66,707.48,179.16,707.47 C179.05,707.47,178.88,707.46,178.88,707.3 C178.88,707.13,179.04,707.13,179.22,707.13 H180.76 C180.94,707.13,181.09,707.13,181.09,707.3 C181.09,707.46,180.93,707.47,180.79,707.47 C180.24,707.48,180.16,707.69,180.16,708.21 V712.76 L184.47,707.09 C184.56,706.97,184.61,706.94,184.68,706.94 C184.85,706.94,184.85,707.09,184.85,707.26 V712.88 C184.85,713.43,184.94,713.57,185.4,713.58 C185.46,713.58,185.63,713.59,185.63,713.75 C185.63,713.93,185.48,713.93,185.3,713.93 H183.84 C183.66,713.93,183.5,713.93,183.5,713.75 C183.5,713.58,183.68,713.58,183.79,713.58 C184.35,713.57,184.43,713.37,184.43,712.85 V709.74 L181.42,713.79 L181.14,713.58 L184.5,709.06 V707.63 L180.16,713.34 C180.06,713.46,180.06,713.48,179.95,713.58 H181.14 L181.42,713.79 C181.32,713.93,181.29,713.93,181.06,713.93 H179.33 C179.15,713.93,179,713.93,179,713.75 C179,713.6,179.15,713.58,179.21,713.58 C179.48,713.55,179.66,713.39,179.76,713.27 C179.74,713.2,179.74,713.17,179.74,713.04 Z " /><path
         id="path4243"
         style="font-style:normal;font-variant:normal;font-weight:normal;font-stretch:normal;letter-spacing:normal;word-spacing:normal;text-anchor:start;fill:#008000;fill-opacity:1;fill-rule:evenodd;stroke:#000000;stroke-linecap:butt;stroke-linejoin:miter;stroke-miterlimit:10.43299961;stroke-dasharray:none;stroke-dashoffset:0;stroke-opacity:1"
         word-spacing="normal"
         stroke-miterlimit="10.433"
         letter-spacing="normal"
         font-weight="normal"
         font-variant="normal"
         font-style="normal"
         font-stretch="normal"
         font-size-adjust="none"
         fill="black"
         stroke-width="0"
         d="M189.43,707.85 L189.43,707.99 L189.43,708.13 L189.42,708.26 L189.41,708.38 L189.4,708.51 L189.39,708.63 L189.37,708.74 L189.35,708.85 L189.32,708.96 L189.29,709.07 L189.26,709.17 L189.22,709.27 L189.18,709.37 L189.13,709.46 L189.08,709.56 L189.05,709.6 L189.02,709.65 C188.8,709.97,188.37,710.25,187.81,710.25 V710.05 C188.19,710.05,188.55,709.82,188.68,709.42 C188.79,709.04,188.79,708.54,188.79,707.94 C188.79,707.42,188.79,706.91,188.7,706.47 C188.56,705.84,188.09,705.69,187.81,705.69 H187.81 C187.49,705.69,187.06,705.87,186.92,706.45 C186.82,706.85,186.82,707.42,186.82,707.94 C186.82,708.45,186.82,708.98,186.93,709.36 C187.07,709.91,187.52,710.05,187.81,710.05 V710.25 C186.19,710.25,186.19,708.35,186.19,707.85 C186.19,707.35,186.19,705.49,187.81,705.49 C189.43,705.49,189.43,707.35,189.43,707.85 Z " /><path
         id="path4245"
         style="font-style:normal;font-variant:normal;font-weight:normal;font-stretch:normal;letter-spacing:normal;word-spacing:normal;text-anchor:start;fill:#008000;fill-opacity:1;fill-rule:evenodd;stroke:#000000;stroke-linecap:butt;stroke-linejoin:miter;stroke-miterlimit:10.43299961;stroke-dasharray:none;stroke-dashoffset:0;stroke-opacity:1"
         word-spacing="normal"
         stroke-miterlimit="10.433"
         letter-spacing="normal"
         font-weight="normal"
         font-variant="normal"
         font-style="normal"
         font-stretch="normal"
         font-size-adjust="none"
         fill="black"
         stroke-width="0"
         d="M201.38,709.41 L201.33,709.37 L201.28,709.33 L201.23,709.29 L201.18,709.25 L201.14,709.22 L201.1,709.18 L201.06,709.14 L201.02,709.1 L200.98,709.07 L200.94,709.03 L200.91,708.99 L200.87,708.96 L200.84,708.92 L200.81,708.89 L200.78,708.86 L200.75,708.82 L200.73,708.79 L200.7,708.76 L200.68,708.73 L200.65,708.7 L200.63,708.68 L200.61,708.65 L200.59,708.63 L200.58,708.6 L200.56,708.58 L200.54,708.56 L200.53,708.54 L200.52,708.52 L200.51,708.5 L200.5,708.48 L200.49,708.47 L200.48,708.46 C200.03,707.77,199.95,707.15,199.95,707.14 C199.95,707.02,200.07,707.02,200.15,707.02 C200.32,707.02,200.33,707.04,200.37,707.21 C200.6,708.19,201.19,709.02,202.31,709.48 C202.43,709.52,202.46,709.54,202.46,709.61 C202.46,709.68,202.4,709.71,202.38,709.72 C201.95,709.89,200.74,710.38,200.36,712.05 C200.33,712.17,200.32,712.2,200.15,712.2 C200.07,712.2,199.95,712.2,199.95,712.08 C199.95,712.06,200.04,711.44,200.46,710.77 C200.66,710.47,200.95,710.13,201.38,709.81 H193.97 C193.79,709.81,193.61,709.81,193.61,709.61 C193.61,709.41,193.79,709.41,193.97,709.41 Z " /><path
         id="path4247"
         style="font-style:normal;font-variant:normal;font-weight:normal;font-stretch:normal;letter-spacing:normal;word-spacing:normal;text-anchor:start;fill:#008000;fill-opacity:1;fill-rule:evenodd;stroke:#000000;stroke-linecap:butt;stroke-linejoin:miter;stroke-miterlimit:10.43299961;stroke-dasharray:none;stroke-dashoffset:0;stroke-opacity:1"
         word-spacing="normal"
         stroke-miterlimit="10.433"
         letter-spacing="normal"
         font-weight="normal"
         font-variant="normal"
         font-style="normal"
         font-stretch="normal"
         font-size-adjust="none"
         fill="black"
         stroke-width="0"
         d="M206.91,713.04 V708.19 C206.91,707.66,206.83,707.48,206.32,707.47 C206.21,707.47,206.04,707.46,206.04,707.3 C206.04,707.13,206.2,707.13,206.38,707.13 H207.92 C208.1,707.13,208.25,707.13,208.25,707.3 C208.25,707.46,208.09,707.47,207.95,707.47 C207.4,707.48,207.33,707.69,207.33,708.21 V712.76 L211.63,707.09 C211.72,706.97,211.77,706.94,211.84,706.94 C212.01,706.94,212.01,707.09,212.01,707.26 V712.88 C212.01,713.43,212.1,713.57,212.56,713.58 C212.62,713.58,212.79,713.59,212.79,713.75 C212.79,713.93,212.64,713.93,212.46,713.93 H211.01 C210.83,713.93,210.67,713.93,210.67,713.75 C210.67,713.58,210.85,713.58,210.96,713.58 C211.51,713.57,211.59,713.37,211.59,712.85 V709.74 L208.58,713.79 L208.3,713.58 L211.66,709.06 V707.63 L207.33,713.34 C207.23,713.46,207.23,713.48,207.12,713.58 H208.3 L208.58,713.79 C208.48,713.93,208.45,713.93,208.22,713.93 H206.49 C206.31,713.93,206.16,713.93,206.16,713.75 C206.16,713.6,206.31,713.58,206.37,713.58 C206.64,713.55,206.83,713.39,206.93,713.27 C206.91,713.2,206.91,713.17,206.91,713.04 Z " /><polygon
         id="polygon4249"
         style="font-style:normal;font-variant:normal;font-weight:normal;font-stretch:normal;letter-spacing:normal;word-spacing:normal;text-anchor:start;fill:#008000;fill-opacity:1;fill-rule:evenodd;stroke:#000000;stroke-linecap:butt;stroke-linejoin:miter;stroke-miterlimit:10.43299961;stroke-dasharray:none;stroke-dashoffset:0;stroke-opacity:1"
         word-spacing="normal"
         stroke-miterlimit="10.433"
         letter-spacing="normal"
         font-weight="normal"
         font-variant="normal"
         font-style="normal"
         font-stretch="normal"
         font-size-adjust="none"
         fill="black"
         stroke-width="0"
         points="214.78,707.95 213.95,707.95 213.95,707.13 214.78,707.13 " /><path
         id="path4251"
         style="font-style:normal;font-variant:normal;font-weight:normal;font-stretch:normal;letter-spacing:normal;word-spacing:normal;text-anchor:start;fill:#008000;fill-opacity:1;fill-rule:evenodd;stroke:#000000;stroke-linecap:butt;stroke-linejoin:miter;stroke-miterlimit:10.43299961;stroke-dasharray:none;stroke-dashoffset:0;stroke-opacity:1"
         word-spacing="normal"
         stroke-miterlimit="10.433"
         letter-spacing="normal"
         font-weight="normal"
         font-variant="normal"
         font-style="normal"
         font-stretch="normal"
         font-size-adjust="none"
         fill="black"
         stroke-width="0"
         d="M220.03,714.02 V707.13 H222.65 C224.35,707.13,225.7,708.64,225.7,710.51 C225.7,712.44,224.35,714.02,222.64,714.02 L222.41,713.46 C223.81,713.46,224.84,712.26,224.84,710.51 C224.84,708.82,223.81,707.68,222.41,707.68 H220.88 V713.46 H222.41 L222.64,714.02 Z " /><path
         id="path4253"
         style="font-style:normal;font-variant:normal;font-weight:normal;font-stretch:normal;letter-spacing:normal;word-spacing:normal;text-anchor:start;fill:#008000;fill-opacity:1;fill-rule:evenodd;stroke:#000000;stroke-linecap:butt;stroke-linejoin:miter;stroke-miterlimit:10.43299961;stroke-dasharray:none;stroke-dashoffset:0;stroke-opacity:1"
         word-spacing="normal"
         stroke-miterlimit="10.433"
         letter-spacing="normal"
         font-weight="normal"
         font-variant="normal"
         font-style="normal"
         font-stretch="normal"
         font-size-adjust="none"
         fill="black"
         stroke-width="0"
         d="M230.24,710 L230.24,710.09 L230.24,710.18 L230.23,710.27 L230.21,710.36 L230.19,710.45 L230.17,710.53 L230.15,710.61 L230.12,710.69 L230.08,710.77 L230.05,710.84 L230.01,710.91 L229.97,710.98 L229.92,711.05 L229.87,711.11 L229.82,711.17 L229.77,711.23 L229.71,711.29 L229.65,711.34 L229.59,711.39 L229.52,711.43 L229.46,711.47 L229.39,711.51 L229.32,711.55 L229.24,711.58 L229.17,711.61 L229.09,711.63 L229.01,711.66 L228.93,711.67 L228.85,711.69 L228.77,711.7 L228.68,711.7 L228.6,711.71 C227.95,711.71,227.5,711.55,227.03,711.28 L227.09,710.62 C227.61,710.99,228.11,711.12,228.6,711.12 C229.07,711.12,229.47,710.72,229.47,709.99 V709.56 C227.97,709.54,226.7,709.12,226.7,708.25 C226.7,707.82,226.97,707.02,227.84,707.02 C227.98,707.02,228.92,707.04,229.5,707.48 L229.13,707.81 C228.84,707.63,228.46,707.62,228.35,707.62 C227.87,707.62,227.42,707.85,227.42,708.27 C227.42,708.96,229.04,709.03,229.47,709.05 V708.44 C229.47,708.25,229.47,708,229.13,707.81 L229.5,707.48 V707.13 H230.24 Z " /><path
         id="path4255"
         style="font-style:normal;font-variant:normal;font-weight:normal;font-stretch:normal;letter-spacing:normal;word-spacing:normal;text-anchor:start;fill:#008000;fill-opacity:1;fill-rule:evenodd;stroke:#000000;stroke-linecap:butt;stroke-linejoin:miter;stroke-miterlimit:10.43299961;stroke-dasharray:none;stroke-dashoffset:0;stroke-opacity:1"
         word-spacing="normal"
         stroke-miterlimit="10.433"
         letter-spacing="normal"
         font-weight="normal"
         font-variant="normal"
         font-style="normal"
         font-stretch="normal"
         font-size-adjust="none"
         fill="black"
         stroke-width="0"
         d="M235.39,710.09 L235.39,710.15 L235.39,710.21 L235.39,710.28 L235.38,710.34 L235.38,710.41 L235.37,710.47 L235.36,710.54 L235.35,710.61 L235.34,710.67 L235.32,710.74 L235.3,710.8 L235.28,710.87 L235.26,710.93 L235.23,710.99 L235.2,711.05 L235.16,711.11 L235.13,711.17 L235.09,711.22 L235.04,711.27 L234.99,711.32 L234.94,711.37 L234.88,711.42 L234.82,711.46 L234.75,711.49 L234.72,711.51 L234.68,711.53 L234.64,711.54 L234.6,711.56 L234.56,711.57 L234.52,711.58 L234.48,711.59 L234.43,711.6 L234.39,711.61 L234.34,711.62 L234.29,711.63 L234.24,711.63 L234.19,711.64 L234.14,711.64 L234.08,711.64 L234.02,711.65 C233.13,711.65,232.64,710.97,232.58,710.89 V711.59 H231.86 V707.13 H232.64 V709.56 C232.64,710.21,232.89,711.04,233.65,711.04 C234.6,711.04,234.61,710.33,234.61,710.02 V707.13 H235.39 Z " /><path
         id="path4257"
         style="font-style:normal;font-variant:normal;font-weight:normal;font-stretch:normal;letter-spacing:normal;word-spacing:normal;text-anchor:start;fill:#008000;fill-opacity:1;fill-rule:evenodd;stroke:#000000;stroke-linecap:butt;stroke-linejoin:miter;stroke-miterlimit:10.43299961;stroke-dasharray:none;stroke-dashoffset:0;stroke-opacity:1"
         word-spacing="normal"
         stroke-miterlimit="10.433"
         letter-spacing="normal"
         font-weight="normal"
         font-variant="normal"
         font-style="normal"
         font-stretch="normal"
         font-size-adjust="none"
         fill="black"
         stroke-width="0"
         d="M240.54,710.09 L240.54,710.15 L240.54,710.21 L240.53,710.28 L240.53,710.34 L240.52,710.41 L240.52,710.47 L240.51,710.54 L240.5,710.61 L240.48,710.67 L240.47,710.74 L240.45,710.8 L240.43,710.87 L240.4,710.93 L240.38,710.99 L240.35,711.05 L240.31,711.11 L240.27,711.17 L240.23,711.22 L240.19,711.27 L240.14,711.32 L240.09,711.37 L240.03,711.42 L239.97,711.46 L239.9,711.49 L239.86,711.51 L239.83,711.53 L239.79,711.54 L239.75,711.56 L239.71,711.57 L239.67,711.58 L239.62,711.59 L239.58,711.6 L239.53,711.61 L239.49,711.62 L239.44,711.63 L239.39,711.63 L239.34,711.64 L239.28,711.64 L239.23,711.64 L239.17,711.65 C238.27,711.65,237.79,710.97,237.73,710.89 V711.59 H237.01 V707.13 H237.79 V709.56 C237.79,710.21,238.04,711.04,238.79,711.04 C239.75,711.04,239.76,710.33,239.76,710.02 V707.13 H240.54 Z " /><polygon
         id="polygon4259"
         style="font-style:normal;font-variant:normal;font-weight:normal;font-stretch:normal;letter-spacing:normal;word-spacing:normal;text-anchor:start;fill:#008000;fill-opacity:1;fill-rule:evenodd;stroke:#000000;stroke-linecap:butt;stroke-linejoin:miter;stroke-miterlimit:10.43299961;stroke-dasharray:none;stroke-dashoffset:0;stroke-opacity:1"
         word-spacing="normal"
         stroke-miterlimit="10.433"
         letter-spacing="normal"
         font-weight="normal"
         font-variant="normal"
         font-style="normal"
         font-stretch="normal"
         font-size-adjust="none"
         fill="black"
         stroke-width="0"
         points="246.3,713.88 245.41,713.88 245.41,713 246.3,713 " /><polygon
         id="polygon4261"
         style="font-style:normal;font-variant:normal;font-weight:normal;font-stretch:normal;letter-spacing:normal;word-spacing:normal;text-anchor:start;fill:#008000;fill-opacity:1;fill-rule:evenodd;stroke:#000000;stroke-linecap:butt;stroke-linejoin:miter;stroke-miterlimit:10.43299961;stroke-dasharray:none;stroke-dashoffset:0;stroke-opacity:1"
         word-spacing="normal"
         stroke-miterlimit="10.433"
         letter-spacing="normal"
         font-weight="normal"
         font-variant="normal"
         font-style="normal"
         font-stretch="normal"
         font-size-adjust="none"
         fill="black"
         stroke-width="0"
         points="246.23,711.54 245.48,711.54 245.48,707.13 246.23,707.13 " /><path
         id="path4263"
         style="font-style:normal;font-variant:normal;font-weight:normal;font-stretch:normal;letter-spacing:normal;word-spacing:normal;text-anchor:start;fill:#008000;fill-opacity:1;fill-rule:evenodd;stroke:#000000;stroke-linecap:butt;stroke-linejoin:miter;stroke-miterlimit:10.43299961;stroke-dasharray:none;stroke-dashoffset:0;stroke-opacity:1"
         word-spacing="normal"
         stroke-miterlimit="10.433"
         letter-spacing="normal"
         font-weight="normal"
         font-variant="normal"
         font-style="normal"
         font-stretch="normal"
         font-size-adjust="none"
         fill="black"
         stroke-width="0"
         d="M250.48,711.39 L250.43,711.41 L250.38,711.43 L250.29,711.47 L250.19,711.5 L250.1,711.54 L250.02,711.57 L249.93,711.59 L249.84,711.62 L249.75,711.64 L249.67,711.65 L249.58,711.67 L249.49,711.68 L249.41,711.69 L249.32,711.7 L249.23,711.7 L249.13,711.7 L249.04,711.71 C248.79,711.71,247.38,711.71,247.38,710.4 C247.38,709.92,247.67,709.6,247.92,709.41 C248.23,709.19,248.45,709.15,249,709.04 C249.36,708.97,249.94,708.85,249.94,708.33 C249.94,707.64,249.15,707.64,249,707.64 C248.19,707.64,247.63,708.01,247.46,708.13 L247.34,707.45 C247.65,707.29,248.2,707.02,249.01,707.02 C249.19,707.02,249.74,707.02,250.17,707.33 C250.48,707.57,250.65,707.97,250.65,708.4 C250.65,708.94,250.28,709.28,250.26,709.31 C249.87,709.66,249.6,709.72,249.1,709.81 C248.55,709.92,248.09,710.02,248.09,710.5 C248.09,711.12,248.81,711.12,248.94,711.12 C249.26,711.12,249.79,711.08,250.36,710.74 Z " /><path
         id="path4265"
         style="font-style:normal;font-variant:normal;font-weight:normal;font-stretch:normal;letter-spacing:normal;word-spacing:normal;text-anchor:start;fill:#008000;fill-opacity:1;fill-rule:evenodd;stroke:#000000;stroke-linecap:butt;stroke-linejoin:miter;stroke-miterlimit:10.43299961;stroke-dasharray:none;stroke-dashoffset:0;stroke-opacity:1"
         word-spacing="normal"
         stroke-miterlimit="10.433"
         letter-spacing="normal"
         font-weight="normal"
         font-variant="normal"
         font-style="normal"
         font-stretch="normal"
         font-size-adjust="none"
         fill="black"
         stroke-width="0"
         d="M153.14,689.68 L153.14,689.78 L153.13,689.88 L153.12,689.98 L153.1,690.07 L153.08,690.16 L153.05,690.26 L153.02,690.35 L152.98,690.43 L152.95,690.52 L152.9,690.6 L152.85,690.68 L152.8,690.76 L152.75,690.84 L152.69,690.91 L152.63,690.98 L152.57,691.05 L152.5,691.11 L152.43,691.17 L152.35,691.23 L152.28,691.28 L152.2,691.33 L152.12,691.38 L152.03,691.42 L151.95,691.46 L151.86,691.49 L151.77,691.52 L151.68,691.55 L151.59,691.57 L151.49,691.59 L151.4,691.6 L151.3,691.61 L151.21,691.61 C150.13,691.61,149.26,690.73,149.26,689.68 C149.26,688.63,150.13,687.76,151.21,687.76 C152.25,687.76,153.14,688.62,153.14,689.68 Z " /><path
         id="path4267"
         style="font-style:normal;font-variant:normal;font-weight:normal;font-stretch:normal;letter-spacing:normal;word-spacing:normal;text-anchor:start;fill:#008000;fill-opacity:1;fill-rule:evenodd;stroke:#000000;stroke-linecap:butt;stroke-linejoin:miter;stroke-miterlimit:10.43299961;stroke-dasharray:none;stroke-dashoffset:0;stroke-opacity:1"
         word-spacing="normal"
         stroke-miterlimit="10.433"
         letter-spacing="normal"
         font-weight="normal"
         font-variant="normal"
         font-style="normal"
         font-stretch="normal"
         font-size-adjust="none"
         fill="black"
         stroke-width="0"
         d="M166.42,691.99 L166.42,692.11 L166.42,692.22 L166.41,692.33 L166.4,692.45 L166.38,692.55 L166.36,692.66 L166.34,692.77 L166.32,692.87 L166.29,692.97 L166.26,693.06 L166.22,693.15 L166.18,693.24 L166.14,693.33 L166.09,693.41 L166.04,693.49 L165.99,693.57 L165.94,693.64 L165.88,693.71 L165.81,693.77 L165.74,693.83 L165.67,693.89 L165.6,693.94 L165.52,693.99 L165.44,694.03 L165.35,694.07 L165.26,694.11 L165.17,694.14 L165.07,694.16 L164.97,694.18 L164.87,694.19 L164.76,694.2 L164.65,694.2 C163.61,694.2,162.73,693.37,162.66,693.31 C161.87,692.53,161.57,691.63,161.57,691.61 C161.57,691.55,161.62,691.54,161.67,691.54 C161.86,691.54,162.01,691.64,162.16,691.75 C162.34,691.88,162.35,691.91,162.46,692.14 C162.55,692.34,162.78,692.82,163.15,693.24 C163.39,693.51,163.59,693.66,163.99,693.66 C164.96,693.66,165.57,692.86,165.57,691.56 C165.57,689.53,164.13,687.53,162.28,687.53 C160.87,687.53,160.09,688.65,160.09,690.07 C160.09,691.42,160.79,692.91,162.24,693.77 C162.34,693.83,162.64,694.01,162.64,694.13 C162.64,694.2,162.56,694.2,162.54,694.2 C162.2,694.2,159.24,692.62,159.24,689.64 C159.24,688.25,159.97,686.98,161.63,686.98 C163.57,686.98,166.42,688.93,166.42,691.99 Z " /><path
         id="path4269"
         style="font-style:normal;font-variant:normal;font-weight:normal;font-stretch:normal;letter-spacing:normal;word-spacing:normal;text-anchor:start;fill:#008000;fill-opacity:1;fill-rule:evenodd;stroke:#000000;stroke-linecap:butt;stroke-linejoin:miter;stroke-miterlimit:10.43299961;stroke-dasharray:none;stroke-dashoffset:0;stroke-opacity:1"
         word-spacing="normal"
         stroke-miterlimit="10.433"
         letter-spacing="normal"
         font-weight="normal"
         font-variant="normal"
         font-style="normal"
         font-stretch="normal"
         font-size-adjust="none"
         fill="black"
         stroke-width="0"
         d="M170.18,684.82 L170.18,684.82 L170.18,684.83 L170.18,684.83 L170.18,684.83 L170.18,684.84 L170.18,684.84 L170.18,684.84 L170.18,684.85 L170.18,684.85 L170.18,684.85 L170.17,684.86 L170.17,684.86 L170.17,684.87 L170.16,684.87 L170.16,684.88 L170.15,684.89 L170.15,684.89 L170.14,684.9 L170.14,684.9 L170.14,684.91 L170.13,684.91 L170.13,684.92 L170.12,684.92 L170.12,684.92 L170.12,684.93 L170.11,684.93 L170.11,684.94 L170.1,684.94 L170.1,684.95 L170.09,684.95 L170.09,684.96 L170.08,684.97 L170.08,684.97 L170.07,684.98 L170.06,684.98 L170.06,684.99 L170.05,685 L170.04,685 L170.04,685.01 L170.03,685.02 L170.02,685.03 L170.01,685.03 C168.77,686.29,168.45,688.16,168.45,689.68 C168.45,691.41,168.83,693.14,170.05,694.38 C170.18,694.5,170.18,694.52,170.18,694.55 C170.18,694.62,170.14,694.65,170.08,694.65 C169.98,694.65,169.09,693.97,168.5,692.71 C167.99,691.62,167.87,690.52,167.87,689.68 C167.87,688.91,167.98,687.71,168.53,686.58 C169.13,685.36,169.98,684.72,170.08,684.72 C170.14,684.72,170.18,684.75,170.18,684.82 Z " /><path
         id="path4271"
         style="font-style:normal;font-variant:normal;font-weight:normal;font-stretch:normal;letter-spacing:normal;word-spacing:normal;text-anchor:start;fill:#008000;fill-opacity:1;fill-rule:evenodd;stroke:#000000;stroke-linecap:butt;stroke-linejoin:miter;stroke-miterlimit:10.43299961;stroke-dasharray:none;stroke-dashoffset:0;stroke-opacity:1"
         word-spacing="normal"
         stroke-miterlimit="10.433"
         letter-spacing="normal"
         font-weight="normal"
         font-variant="normal"
         font-style="normal"
         font-stretch="normal"
         font-size-adjust="none"
         fill="black"
         stroke-width="0"
         d="M174.42,691.17 H175.27 C175.47,691.17,175.57,691.17,175.57,691.37 C175.57,691.48,175.47,691.48,175.3,691.48 H174.48 L174.69,692.61 C174.73,692.82,174.87,693.53,174.93,693.65 C175.01,693.84,175.18,693.98,175.39,693.98 C175.43,693.98,175.69,693.98,175.88,693.81 C175.44,693.77,175.34,693.42,175.34,693.27 C175.34,693.04,175.52,692.92,175.71,692.92 C175.97,692.92,176.26,693.14,176.26,693.52 C176.26,693.97,175.8,694.2,175.39,694.2 C175.05,694.2,174.43,694.03,174.13,693.04 C174.07,692.83,174.04,692.73,173.8,691.48 H173.11 C172.92,691.48,172.81,691.48,172.81,691.29 C172.81,691.17,172.9,691.17,173.09,691.17 H173.75 L173,687.25 C172.82,686.29,172.65,685.38,172.13,685.38 C172.09,685.38,171.84,685.38,171.65,685.56 C172.11,685.59,172.2,685.95,172.2,686.1 C172.2,686.33,172.02,686.45,171.83,686.45 C171.57,686.45,171.29,686.23,171.29,685.85 C171.29,685.4,171.72,685.16,172.13,685.16 C172.68,685.16,173.08,685.75,173.26,686.13 C173.58,686.75,173.81,687.96,173.82,688.03 Z " /><path
         id="path4273"
         style="font-style:normal;font-variant:normal;font-weight:normal;font-stretch:normal;letter-spacing:normal;word-spacing:normal;text-anchor:start;fill:#008000;fill-opacity:1;fill-rule:evenodd;stroke:#000000;stroke-linecap:butt;stroke-linejoin:miter;stroke-miterlimit:10.43299961;stroke-dasharray:none;stroke-dashoffset:0;stroke-opacity:1"
         word-spacing="normal"
         stroke-miterlimit="10.433"
         letter-spacing="normal"
         font-weight="normal"
         font-variant="normal"
         font-style="normal"
         font-stretch="normal"
         font-size-adjust="none"
         fill="black"
         stroke-width="0"
         d="M179.59,689.68 L179.59,689.76 L179.59,689.83 L179.59,689.91 L179.58,689.99 L179.58,690.16 L179.56,690.34 L179.55,690.52 L179.53,690.71 L179.5,690.9 L179.47,691.1 L179.43,691.31 L179.38,691.51 L179.33,691.72 L179.27,691.93 L179.2,692.15 L179.12,692.36 L179.07,692.47 L179.03,692.57 L178.98,692.68 L178.93,692.78 C178.33,694.01,177.48,694.65,177.38,694.65 C177.32,694.65,177.27,694.61,177.27,694.55 C177.27,694.52,177.27,694.5,177.46,694.32 C178.44,693.34,179.01,691.76,179.01,689.68 C179.01,687.98,178.64,686.24,177.4,684.98 C177.27,684.87,177.27,684.85,177.27,684.82 C177.27,684.76,177.32,684.72,177.38,684.72 C177.48,684.72,178.37,685.39,178.96,686.65 C179.47,687.75,179.59,688.85,179.59,689.68 Z " /><path
         id="path4275"
         style="font-style:normal;font-variant:normal;font-weight:normal;font-stretch:normal;letter-spacing:normal;word-spacing:normal;text-anchor:start;fill:#008000;fill-opacity:1;fill-rule:evenodd;stroke:#000000;stroke-linecap:butt;stroke-linejoin:miter;stroke-miterlimit:10.43299961;stroke-dasharray:none;stroke-dashoffset:0;stroke-opacity:1"
         word-spacing="normal"
         stroke-miterlimit="10.433"
         letter-spacing="normal"
         font-weight="normal"
         font-variant="normal"
         font-style="normal"
         font-stretch="normal"
         font-size-adjust="none"
         fill="black"
         stroke-width="0"
         d="M185.27,690.96 L185.27,690.98 L185.26,691.01 L185.26,691.03 L185.26,691.06 L185.25,691.09 L185.24,691.11 L185.23,691.13 L185.22,691.16 L185.21,691.18 L185.2,691.2 L185.19,691.23 L185.17,691.25 L185.16,691.27 L185.14,691.29 L185.13,691.31 L185.11,691.33 L185.09,691.34 L185.07,691.36 L185.05,691.38 L185.03,691.39 L185.01,691.4 L184.99,691.42 L184.96,691.43 L184.94,691.44 L184.92,691.45 L184.89,691.46 L184.87,691.46 L184.84,691.47 L184.82,691.47 L184.79,691.48 L184.76,691.48 L184.74,691.48 C184.45,691.48,184.21,691.24,184.21,690.96 C184.21,690.67,184.45,690.43,184.74,690.43 C185.03,690.43,185.27,690.67,185.27,690.96 Z " /><path
         id="path4277"
         style="font-style:normal;font-variant:normal;font-weight:normal;font-stretch:normal;letter-spacing:normal;word-spacing:normal;text-anchor:start;fill:#008000;fill-opacity:1;fill-rule:evenodd;stroke:#000000;stroke-linecap:butt;stroke-linejoin:miter;stroke-miterlimit:10.43299961;stroke-dasharray:none;stroke-dashoffset:0;stroke-opacity:1"
         word-spacing="normal"
         stroke-miterlimit="10.433"
         letter-spacing="normal"
         font-weight="normal"
         font-variant="normal"
         font-style="normal"
         font-stretch="normal"
         font-size-adjust="none"
         fill="black"
         stroke-width="0"
         d="M185.27,687.73 L185.27,687.75 L185.26,687.78 L185.26,687.81 L185.26,687.83 L185.25,687.86 L185.24,687.88 L185.23,687.91 L185.22,687.93 L185.21,687.95 L185.2,687.98 L185.19,688 L185.17,688.02 L185.16,688.04 L185.14,688.06 L185.13,688.08 L185.11,688.1 L185.09,688.12 L185.07,688.13 L185.05,688.15 L185.03,688.16 L185.01,688.18 L184.99,688.19 L184.96,688.2 L184.94,688.21 L184.92,688.22 L184.89,688.23 L184.87,688.24 L184.84,688.24 L184.82,688.25 L184.79,688.25 L184.76,688.25 L184.74,688.25 C184.45,688.25,184.21,688.02,184.21,687.73 C184.21,687.44,184.45,687.2,184.74,687.2 C185.03,687.2,185.27,687.44,185.27,687.73 Z " /><path
         id="path4279"
         style="font-style:normal;font-variant:normal;font-weight:normal;font-stretch:normal;letter-spacing:normal;word-spacing:normal;text-anchor:start;fill:#008000;fill-opacity:1;fill-rule:evenodd;stroke:#000000;stroke-linecap:butt;stroke-linejoin:miter;stroke-miterlimit:10.43299961;stroke-dasharray:none;stroke-dashoffset:0;stroke-opacity:1"
         word-spacing="normal"
         stroke-miterlimit="10.433"
         letter-spacing="normal"
         font-weight="normal"
         font-variant="normal"
         font-style="normal"
         font-stretch="normal"
         font-size-adjust="none"
         fill="black"
         stroke-width="0"
         d="M192.97,690.45 L193,690.45 L193.03,690.45 L193.06,690.45 L193.07,690.45 L193.09,690.45 L193.1,690.45 L193.11,690.45 L193.13,690.46 L193.14,690.46 L193.16,690.46 L193.17,690.46 L193.18,690.47 L193.2,690.47 L193.21,690.48 L193.22,690.48 L193.23,690.49 L193.24,690.5 L193.25,690.5 L193.26,690.51 L193.27,690.52 L193.28,690.53 L193.28,690.54 L193.28,690.54 L193.29,690.55 L193.29,690.55 L193.29,690.56 L193.3,690.57 L193.3,690.57 L193.3,690.58 L193.3,690.59 L193.3,690.6 L193.31,690.6 L193.31,690.61 L193.31,690.62 L193.31,690.63 L193.31,690.64 L193.31,690.65 C193.31,690.85,193.12,690.85,192.98,690.85 H187.01 C186.87,690.85,186.68,690.85,186.68,690.65 C186.68,690.45,186.87,690.45,187.02,690.45 Z " /><path
         id="path4281"
         style="font-style:normal;font-variant:normal;font-weight:normal;font-stretch:normal;letter-spacing:normal;word-spacing:normal;text-anchor:start;fill:#008000;fill-opacity:1;fill-rule:evenodd;stroke:#000000;stroke-linecap:butt;stroke-linejoin:miter;stroke-miterlimit:10.43299961;stroke-dasharray:none;stroke-dashoffset:0;stroke-opacity:1"
         word-spacing="normal"
         stroke-miterlimit="10.433"
         letter-spacing="normal"
         font-weight="normal"
         font-variant="normal"
         font-style="normal"
         font-stretch="normal"
         font-size-adjust="none"
         fill="black"
         stroke-width="0"
         d="M192.98,688.52 L192.99,688.52 L193.01,688.52 L193.03,688.52 L193.06,688.52 L193.08,688.52 L193.09,688.52 L193.1,688.53 L193.12,688.53 L193.13,688.53 L193.14,688.53 L193.16,688.53 L193.17,688.54 L193.18,688.54 L193.2,688.55 L193.21,688.55 L193.22,688.56 L193.23,688.56 L193.24,688.57 L193.25,688.58 L193.26,688.59 L193.27,688.59 L193.27,688.6 L193.28,688.6 L193.28,688.61 L193.28,688.62 L193.29,688.62 L193.29,688.63 L193.29,688.63 L193.3,688.64 L193.3,688.65 L193.3,688.65 L193.3,688.66 L193.3,688.67 L193.31,688.68 L193.31,688.68 L193.31,688.69 L193.31,688.7 L193.31,688.71 L193.31,688.72 C193.31,688.92,193.12,688.92,192.97,688.92 H187.02 C186.87,688.92,186.68,688.92,186.68,688.72 C186.68,688.52,186.87,688.52,187.01,688.52 Z " /><path
         id="path4283"
         style="font-style:normal;font-variant:normal;font-weight:normal;font-stretch:normal;letter-spacing:normal;word-spacing:normal;text-anchor:start;fill:#008000;fill-opacity:1;fill-rule:evenodd;stroke:#000000;stroke-linecap:butt;stroke-linejoin:miter;stroke-miterlimit:10.43299961;stroke-dasharray:none;stroke-dashoffset:0;stroke-opacity:1"
         word-spacing="normal"
         stroke-miterlimit="10.433"
         letter-spacing="normal"
         font-weight="normal"
         font-variant="normal"
         font-style="normal"
         font-stretch="normal"
         font-size-adjust="none"
         fill="black"
         stroke-width="0"
         d="M199.46,693.33 L199.46,693.37 L199.46,693.41 L199.46,693.45 L199.47,693.49 L199.48,693.53 L199.49,693.57 L199.5,693.62 L199.51,693.66 L199.53,693.7 L199.55,693.75 L199.57,693.79 L199.59,693.83 L199.62,693.88 L199.65,693.92 L199.68,693.96 L199.72,694 L199.76,694.04 L199.8,694.08 L199.85,694.12 L199.9,694.16 L199.95,694.19 L200.01,694.23 L200.07,694.26 L200.13,694.29 L200.2,694.31 L200.27,694.34 L200.35,694.36 L200.43,694.38 L200.47,694.39 L200.52,694.4 L200.56,694.41 L200.61,694.41 L200.65,694.42 L200.7,694.42 L200.75,694.43 L200.8,694.43 C200.85,694.44,200.89,694.48,200.89,694.54 C200.89,694.65,200.81,694.65,200.7,694.65 C199.7,694.65,198.8,694.14,198.79,693.41 V691.14 C198.79,690.76,198.79,690.44,198.39,690.11 C198.04,689.82,197.66,689.8,197.44,689.79 C197.39,689.78,197.35,689.74,197.35,689.68 C197.35,689.58,197.41,689.58,197.51,689.57 C198.17,689.53,198.65,689.18,198.76,688.69 C198.79,688.58,198.79,688.56,198.79,688.2 V686.24 C198.79,685.82,198.79,685.5,199.27,685.12 C199.65,684.83,200.31,684.72,200.7,684.72 C200.81,684.72,200.89,684.72,200.89,684.83 C200.89,684.92,200.83,684.92,200.73,684.93 C200.1,684.97,199.62,685.29,199.49,685.8 C199.46,685.89,199.46,685.91,199.46,686.27 V688.35 C199.46,688.81,199.38,688.98,199.06,689.3 C198.85,689.51,198.56,689.6,198.28,689.68 C199.1,689.91,199.46,690.37,199.46,690.95 Z " /><path
         id="path4285"
         style="font-style:normal;font-variant:normal;font-weight:normal;font-stretch:normal;letter-spacing:normal;word-spacing:normal;text-anchor:start;fill:#008000;fill-opacity:1;fill-rule:evenodd;stroke:#000000;stroke-linecap:butt;stroke-linejoin:miter;stroke-miterlimit:10.43299961;stroke-dasharray:none;stroke-dashoffset:0;stroke-opacity:1"
         word-spacing="normal"
         stroke-miterlimit="10.433"
         letter-spacing="normal"
         font-weight="normal"
         font-variant="normal"
         font-style="normal"
         font-stretch="normal"
         font-size-adjust="none"
         fill="black"
         stroke-width="0"
         d="M206.31,690.95 L206.31,690.96 L206.32,690.97 L206.32,690.98 L206.32,690.99 L206.32,691.01 L206.33,691.02 L206.33,691.03 L206.33,691.04 L206.33,691.05 L206.34,691.06 L206.34,691.07 L206.34,691.09 L206.34,691.09 L206.34,691.1 L206.34,691.1 L206.34,691.11 L206.34,691.12 L206.34,691.12 C206.34,691.29,206.22,691.39,206.05,691.39 C205.95,691.39,205.68,691.32,205.64,690.97 C205.46,691.33,205.11,691.59,204.71,691.59 L204.73,691.37 C205.38,691.37,205.52,690.57,205.52,690.52 C205.52,690.47,205.5,690.41,205.49,690.37 L205.01,688.47 C204.96,688.21,204.73,687.97,204.51,687.78 C204.3,687.6,203.99,687.42,203.7,687.42 C203.2,687.42,203.05,687.93,203.05,688.33 C203.05,688.81,203.34,689.98,203.61,690.49 C203.88,690.97,204.31,691.37,204.73,691.37 L204.71,691.59 C203.58,691.59,202.34,690.2,202.34,688.77 C202.34,687.79,202.95,687.2,203.67,687.2 C204.26,687.2,204.73,687.67,204.82,687.78 L204.84,687.77 C204.63,686.88,204.51,686.47,204.51,686.46 C204.47,686.37,204.13,685.38,203.07,685.38 C202.88,685.38,202.55,685.39,202.27,685.48 C202.57,685.57,202.68,685.83,202.68,686 C202.68,686.16,202.57,686.35,202.3,686.35 C202.08,686.35,201.76,686.17,201.76,685.77 C201.76,685.36,202.13,685.16,203.09,685.16 C204.34,685.16,205.05,685.94,205.2,686.53 Z " /><path
         id="path4287"
         style="font-style:normal;font-variant:normal;font-weight:normal;font-stretch:normal;letter-spacing:normal;word-spacing:normal;text-anchor:start;fill:#008000;fill-opacity:1;fill-rule:evenodd;stroke:#000000;stroke-linecap:butt;stroke-linejoin:miter;stroke-miterlimit:10.43299961;stroke-dasharray:none;stroke-dashoffset:0;stroke-opacity:1"
         word-spacing="normal"
         stroke-miterlimit="10.433"
         letter-spacing="normal"
         font-weight="normal"
         font-variant="normal"
         font-style="normal"
         font-stretch="normal"
         font-size-adjust="none"
         fill="black"
         stroke-width="0"
         d="M211.41,690.96 L211.41,690.98 L211.4,691.01 L211.4,691.03 L211.4,691.06 L211.39,691.09 L211.38,691.11 L211.37,691.13 L211.36,691.16 L211.35,691.18 L211.34,691.2 L211.33,691.23 L211.31,691.25 L211.3,691.27 L211.28,691.29 L211.27,691.31 L211.25,691.33 L211.23,691.34 L211.21,691.36 L211.19,691.38 L211.17,691.39 L211.15,691.4 L211.13,691.42 L211.1,691.43 L211.08,691.44 L211.06,691.45 L211.03,691.46 L211.01,691.46 L210.98,691.47 L210.96,691.47 L210.93,691.48 L210.9,691.48 L210.88,691.48 C210.59,691.48,210.35,691.24,210.35,690.96 C210.35,690.67,210.59,690.43,210.88,690.43 C211.17,690.43,211.41,690.67,211.41,690.96 Z " /><path
         id="path4289"
         style="font-style:normal;font-variant:normal;font-weight:normal;font-stretch:normal;letter-spacing:normal;word-spacing:normal;text-anchor:start;fill:#008000;fill-opacity:1;fill-rule:evenodd;stroke:#000000;stroke-linecap:butt;stroke-linejoin:miter;stroke-miterlimit:10.43299961;stroke-dasharray:none;stroke-dashoffset:0;stroke-opacity:1"
         word-spacing="normal"
         stroke-miterlimit="10.433"
         letter-spacing="normal"
         font-weight="normal"
         font-variant="normal"
         font-style="normal"
         font-stretch="normal"
         font-size-adjust="none"
         fill="black"
         stroke-width="0"
         d="M211.41,687.73 L211.41,687.75 L211.4,687.78 L211.4,687.81 L211.4,687.83 L211.39,687.86 L211.38,687.88 L211.37,687.91 L211.36,687.93 L211.35,687.95 L211.34,687.98 L211.33,688 L211.31,688.02 L211.3,688.04 L211.28,688.06 L211.27,688.08 L211.25,688.1 L211.23,688.12 L211.21,688.13 L211.19,688.15 L211.17,688.16 L211.15,688.18 L211.13,688.19 L211.1,688.2 L211.08,688.21 L211.06,688.22 L211.03,688.23 L211.01,688.24 L210.98,688.24 L210.96,688.25 L210.93,688.25 L210.9,688.25 L210.88,688.25 C210.59,688.25,210.35,688.02,210.35,687.73 C210.35,687.44,210.59,687.2,210.88,687.2 C211.17,687.2,211.41,687.44,211.41,687.73 Z " /><path
         id="path4291"
         style="font-style:normal;font-variant:normal;font-weight:normal;font-stretch:normal;letter-spacing:normal;word-spacing:normal;text-anchor:start;fill:#008000;fill-opacity:1;fill-rule:evenodd;stroke:#000000;stroke-linecap:butt;stroke-linejoin:miter;stroke-miterlimit:10.43299961;stroke-dasharray:none;stroke-dashoffset:0;stroke-opacity:1"
         word-spacing="normal"
         stroke-miterlimit="10.433"
         letter-spacing="normal"
         font-weight="normal"
         font-variant="normal"
         font-style="normal"
         font-stretch="normal"
         font-size-adjust="none"
         fill="black"
         stroke-width="0"
         d="M216.14,693.11 V688.26 C216.14,687.74,216.06,687.56,215.55,687.55 C215.44,687.55,215.27,687.54,215.27,687.38 C215.27,687.2,215.43,687.2,215.61,687.2 H217.16 C217.34,687.2,217.49,687.2,217.49,687.38 C217.49,687.54,217.33,687.55,217.19,687.55 C216.64,687.56,216.56,687.77,216.56,688.28 V692.83 L220.87,687.16 C220.96,687.04,221.01,687.01,221.08,687.01 C221.25,687.01,221.25,687.17,221.25,687.34 V692.95 C221.25,693.51,221.34,693.65,221.8,693.66 C221.86,693.66,222.02,693.67,222.02,693.83 C222.02,694.01,221.88,694.01,221.7,694.01 H220.24 C220.06,694.01,219.9,694.01,219.9,693.83 C219.9,693.66,220.08,693.66,220.19,693.66 C220.75,693.65,220.83,693.45,220.83,692.92 V689.81 L217.82,693.87 L217.54,693.66 L220.9,689.14 V687.71 L216.56,693.42 C216.46,693.54,216.46,693.56,216.35,693.66 H217.54 L217.82,693.87 C217.72,694.01,217.69,694.01,217.46,694.01 H215.72 C215.54,694.01,215.39,694.01,215.39,693.83 C215.39,693.68,215.54,693.66,215.6,693.66 C215.87,693.63,216.06,693.47,216.16,693.35 C216.14,693.27,216.14,693.25,216.14,693.11 Z " /><path
         id="path4293"
         style="font-style:normal;font-variant:normal;font-weight:normal;font-stretch:normal;letter-spacing:normal;word-spacing:normal;text-anchor:start;fill:#008000;fill-opacity:1;fill-rule:evenodd;stroke:#000000;stroke-linecap:butt;stroke-linejoin:miter;stroke-miterlimit:10.43299961;stroke-dasharray:none;stroke-dashoffset:0;stroke-opacity:1"
         word-spacing="normal"
         stroke-miterlimit="10.433"
         letter-spacing="normal"
         font-weight="normal"
         font-variant="normal"
         font-style="normal"
         font-stretch="normal"
         font-size-adjust="none"
         fill="black"
         stroke-width="0"
         d="M233.3,689.48 L233.25,689.45 L233.21,689.41 L233.16,689.37 L233.11,689.33 L233.07,689.29 L233.03,689.25 L232.98,689.22 L232.94,689.18 L232.91,689.14 L232.87,689.1 L232.83,689.07 L232.8,689.03 L232.77,689 L232.74,688.97 L232.71,688.93 L232.68,688.9 L232.65,688.87 L232.63,688.84 L232.6,688.81 L232.58,688.78 L232.56,688.75 L232.54,688.73 L232.52,688.7 L232.5,688.68 L232.49,688.65 L232.47,688.63 L232.46,688.61 L232.45,688.59 L232.43,688.57 L232.42,688.56 L232.42,688.54 L232.41,688.53 C231.96,687.85,231.88,687.22,231.88,687.21 C231.88,687.09,232,687.09,232.08,687.09 C232.25,687.09,232.26,687.11,232.3,687.29 C232.53,688.26,233.12,689.1,234.24,689.55 C234.36,689.59,234.39,689.61,234.39,689.68 C234.39,689.75,234.33,689.78,234.31,689.79 C233.87,689.96,232.67,690.46,232.29,692.13 C232.26,692.25,232.25,692.28,232.08,692.28 C232,692.28,231.88,692.28,231.88,692.16 C231.88,692.14,231.97,691.51,232.39,690.85 C232.59,690.55,232.88,690.2,233.3,689.88 H225.9 C225.72,689.88,225.54,689.88,225.54,689.68 C225.54,689.48,225.72,689.48,225.9,689.48 Z " /><path
         id="path4295"
         style="font-style:normal;font-variant:normal;font-weight:normal;font-stretch:normal;letter-spacing:normal;word-spacing:normal;text-anchor:start;fill:#008000;fill-opacity:1;fill-rule:evenodd;stroke:#000000;stroke-linecap:butt;stroke-linejoin:miter;stroke-miterlimit:10.43299961;stroke-dasharray:none;stroke-dashoffset:0;stroke-opacity:1"
         word-spacing="normal"
         stroke-miterlimit="10.433"
         letter-spacing="normal"
         font-weight="normal"
         font-variant="normal"
         font-style="normal"
         font-stretch="normal"
         font-size-adjust="none"
         fill="black"
         stroke-width="0"
         d="M238.84,693.11 V688.26 C238.84,687.74,238.76,687.56,238.25,687.55 C238.14,687.55,237.97,687.54,237.97,687.38 C237.97,687.2,238.13,687.2,238.31,687.2 H239.85 C240.03,687.2,240.18,687.2,240.18,687.38 C240.18,687.54,240.02,687.55,239.88,687.55 C239.33,687.56,239.25,687.77,239.25,688.28 V692.83 L243.56,687.16 C243.65,687.04,243.7,687.01,243.77,687.01 C243.94,687.01,243.94,687.17,243.94,687.34 V692.95 C243.94,693.51,244.03,693.65,244.49,693.66 C244.55,693.66,244.72,693.67,244.72,693.83 C244.72,694.01,244.57,694.01,244.39,694.01 H242.93 C242.75,694.01,242.59,694.01,242.59,693.83 C242.59,693.66,242.77,693.66,242.88,693.66 C243.44,693.65,243.52,693.45,243.52,692.92 V689.81 L240.51,693.87 L240.23,693.66 L243.59,689.14 V687.71 L239.25,693.42 C239.15,693.54,239.15,693.56,239.04,693.66 H240.23 L240.51,693.87 C240.41,694.01,240.38,694.01,240.15,694.01 H238.42 C238.24,694.01,238.09,694.01,238.09,693.83 C238.09,693.68,238.24,693.66,238.3,693.66 C238.57,693.63,238.76,693.47,238.85,693.35 C238.84,693.27,238.84,693.25,238.84,693.11 Z " /><path
         id="path4297"
         style="font-style:normal;font-variant:normal;font-weight:normal;font-stretch:normal;letter-spacing:normal;word-spacing:normal;text-anchor:start;fill:#008000;fill-opacity:1;fill-rule:evenodd;stroke:#000000;stroke-linecap:butt;stroke-linejoin:miter;stroke-miterlimit:10.43299961;stroke-dasharray:none;stroke-dashoffset:0;stroke-opacity:1"
         word-spacing="normal"
         stroke-miterlimit="10.433"
         letter-spacing="normal"
         font-weight="normal"
         font-variant="normal"
         font-style="normal"
         font-stretch="normal"
         font-size-adjust="none"
         fill="black"
         stroke-width="0"
         d="M249.27,694.29 L249.27,694.33 L249.27,694.36 L249.27,694.39 L249.26,694.41 L249.26,694.42 L249.26,694.44 L249.26,694.46 L249.26,694.47 L249.26,694.48 L249.25,694.5 L249.25,694.51 L249.25,694.53 L249.24,694.54 L249.24,694.55 L249.23,694.56 L249.23,694.57 L249.22,694.58 L249.21,694.59 L249.2,694.6 L249.19,694.61 L249.18,694.62 L249.17,694.63 L249.17,694.63 L249.16,694.63 L249.15,694.64 L249.15,694.64 L249.14,694.64 L249.13,694.64 L249.13,694.64 L249.12,694.65 L249.11,694.65 L249.1,694.65 L249.09,694.65 L249.09,694.65 L249.08,694.65 L249.07,694.65 C248.87,694.65,248.87,694.47,248.87,694.29 V685.07 C248.87,684.9,248.87,684.72,249.07,684.72 C249.27,684.72,249.27,684.9,249.27,685.07 Z " /><path
         id="path4299"
         style="font-style:normal;font-variant:normal;font-weight:normal;font-stretch:normal;letter-spacing:normal;word-spacing:normal;text-anchor:start;fill:#008000;fill-opacity:1;fill-rule:evenodd;stroke:#000000;stroke-linecap:butt;stroke-linejoin:miter;stroke-miterlimit:10.43299961;stroke-dasharray:none;stroke-dashoffset:0;stroke-opacity:1"
         word-spacing="normal"
         stroke-miterlimit="10.433"
         letter-spacing="normal"
         font-weight="normal"
         font-variant="normal"
         font-style="normal"
         font-stretch="normal"
         font-size-adjust="none"
         fill="black"
         stroke-width="0"
         d="M258.2,693.74 L258.2,693.75 L258.2,693.77 L258.2,693.78 L258.2,693.79 L258.2,693.81 L258.2,693.82 L258.2,693.83 L258.2,693.85 L258.2,693.86 L258.2,693.87 L258.2,693.88 L258.2,693.89 L258.2,693.9 L258.2,693.91 L258.19,693.93 L258.19,693.95 L258.19,693.96 L258.18,693.98 L258.18,693.99 L258.17,694.01 L258.17,694.02 L258.16,694.03 L258.15,694.04 L258.14,694.05 L258.13,694.05 L258.12,694.06 L258.11,694.07 L258.09,694.07 L258.08,694.08 L258.06,694.08 L258.04,694.08 L258.03,694.09 L258.01,694.09 L258,694.09 L257.98,694.09 L257.97,694.09 L257.96,694.09 L257.95,694.09 L257.94,694.09 L257.92,694.09 L257.91,694.09 L257.9,694.09 L257.88,694.09 L257.87,694.09 L257.86,694.09 H254.12 C253.95,694.09,253.77,694.09,253.77,693.9 C253.77,693.7,253.95,693.7,254.12,693.7 H257.8 V690.85 H254.26 C254.09,690.85,253.91,690.85,253.91,690.65 C253.91,690.45,254.09,690.45,254.26,690.45 H257.8 V687.6 H254.12 C253.95,687.6,253.77,687.6,253.77,687.4 C253.77,687.2,253.95,687.2,254.12,687.2 H257.86 C258.17,687.2,258.2,687.23,258.2,687.56 Z " /><path
         id="path4301"
         style="font-style:normal;font-variant:normal;font-weight:normal;font-stretch:normal;letter-spacing:normal;word-spacing:normal;text-anchor:start;fill:#008000;fill-opacity:1;fill-rule:evenodd;stroke:#000000;stroke-linecap:butt;stroke-linejoin:miter;stroke-miterlimit:10.43299961;stroke-dasharray:none;stroke-dashoffset:0;stroke-opacity:1"
         word-spacing="normal"
         stroke-miterlimit="10.433"
         letter-spacing="normal"
         font-weight="normal"
         font-variant="normal"
         font-style="normal"
         font-stretch="normal"
         font-size-adjust="none"
         fill="black"
         stroke-width="0"
         d="M262.33,687.73 L262.32,687.75 L262.32,687.78 L262.32,687.81 L262.31,687.83 L262.31,687.86 L262.3,687.88 L262.29,687.91 L262.28,687.93 L262.27,687.95 L262.26,687.98 L262.25,688 L262.23,688.02 L262.22,688.04 L262.2,688.06 L262.19,688.08 L262.17,688.1 L262.15,688.12 L262.13,688.13 L262.11,688.15 L262.09,688.16 L262.07,688.18 L262.05,688.19 L262.02,688.2 L262,688.21 L261.98,688.22 L261.95,688.23 L261.93,688.24 L261.9,688.24 L261.88,688.25 L261.85,688.25 L261.82,688.25 L261.8,688.25 C261.51,688.25,261.27,688.02,261.27,687.73 C261.27,687.44,261.51,687.2,261.8,687.2 C262.08,687.2,262.33,687.44,262.33,687.73 Z " /><path
         id="path4303"
         style="font-style:normal;font-variant:normal;font-weight:normal;font-stretch:normal;letter-spacing:normal;word-spacing:normal;text-anchor:start;fill:#008000;fill-opacity:1;fill-rule:evenodd;stroke:#000000;stroke-linecap:butt;stroke-linejoin:miter;stroke-miterlimit:10.43299961;stroke-dasharray:none;stroke-dashoffset:0;stroke-opacity:1"
         word-spacing="normal"
         stroke-miterlimit="10.433"
         letter-spacing="normal"
         font-weight="normal"
         font-variant="normal"
         font-style="normal"
         font-stretch="normal"
         font-size-adjust="none"
         fill="black"
         stroke-width="0"
         d="M266.76,687.73 L266.76,687.75 L266.75,687.78 L266.75,687.81 L266.75,687.83 L266.74,687.86 L266.73,687.88 L266.72,687.91 L266.71,687.93 L266.7,687.95 L266.69,687.98 L266.68,688 L266.67,688.02 L266.65,688.04 L266.63,688.06 L266.62,688.08 L266.6,688.1 L266.58,688.12 L266.56,688.13 L266.54,688.15 L266.52,688.16 L266.5,688.18 L266.48,688.19 L266.46,688.2 L266.43,688.21 L266.41,688.22 L266.38,688.23 L266.36,688.24 L266.33,688.24 L266.31,688.25 L266.28,688.25 L266.25,688.25 L266.23,688.25 C265.94,688.25,265.7,688.02,265.7,687.73 C265.7,687.44,265.94,687.2,266.23,687.2 C266.52,687.2,266.76,687.44,266.76,687.73 Z " /><path
         id="path4305"
         style="font-style:normal;font-variant:normal;font-weight:normal;font-stretch:normal;letter-spacing:normal;word-spacing:normal;text-anchor:start;fill:#008000;fill-opacity:1;fill-rule:evenodd;stroke:#000000;stroke-linecap:butt;stroke-linejoin:miter;stroke-miterlimit:10.43299961;stroke-dasharray:none;stroke-dashoffset:0;stroke-opacity:1"
         word-spacing="normal"
         stroke-miterlimit="10.433"
         letter-spacing="normal"
         font-weight="normal"
         font-variant="normal"
         font-style="normal"
         font-stretch="normal"
         font-size-adjust="none"
         fill="black"
         stroke-width="0"
         d="M271.18,687.73 L271.18,687.75 L271.17,687.78 L271.17,687.81 L271.17,687.83 L271.16,687.86 L271.15,687.88 L271.14,687.91 L271.14,687.93 L271.12,687.95 L271.11,687.98 L271.1,688 L271.09,688.02 L271.07,688.04 L271.06,688.06 L271.04,688.08 L271.02,688.1 L271,688.12 L270.98,688.13 L270.96,688.15 L270.94,688.16 L270.92,688.18 L270.9,688.19 L270.88,688.2 L270.85,688.21 L270.83,688.22 L270.81,688.23 L270.78,688.24 L270.75,688.24 L270.73,688.25 L270.7,688.25 L270.68,688.25 L270.65,688.25 C270.36,688.25,270.12,688.02,270.12,687.73 C270.12,687.44,270.36,687.2,270.65,687.2 C270.94,687.2,271.18,687.44,271.18,687.73 Z " /><path
         id="path4307"
         style="font-style:normal;font-variant:normal;font-weight:normal;font-stretch:normal;letter-spacing:normal;word-spacing:normal;text-anchor:start;fill:#008000;fill-opacity:1;fill-rule:evenodd;stroke:#000000;stroke-linecap:butt;stroke-linejoin:miter;stroke-miterlimit:10.43299961;stroke-dasharray:none;stroke-dashoffset:0;stroke-opacity:1"
         word-spacing="normal"
         stroke-miterlimit="10.433"
         letter-spacing="normal"
         font-weight="normal"
         font-variant="normal"
         font-style="normal"
         font-stretch="normal"
         font-size-adjust="none"
         fill="black"
         stroke-width="0"
         d="M275.85,686.04 L275.85,686 L275.84,685.96 L275.84,685.92 L275.83,685.88 L275.83,685.84 L275.82,685.79 L275.8,685.75 L275.79,685.71 L275.77,685.66 L275.75,685.62 L275.73,685.58 L275.71,685.53 L275.68,685.49 L275.65,685.45 L275.62,685.4 L275.58,685.36 L275.54,685.32 L275.5,685.28 L275.45,685.25 L275.41,685.21 L275.35,685.17 L275.3,685.14 L275.24,685.11 L275.17,685.08 L275.1,685.05 L275.03,685.03 L274.95,685.01 L274.87,684.99 L274.83,684.98 L274.79,684.97 L274.74,684.96 L274.7,684.95 L274.65,684.95 L274.6,684.94 L274.55,684.94 L274.5,684.93 C274.45,684.92,274.41,684.89,274.41,684.83 C274.41,684.72,274.52,684.72,274.61,684.72 C275.58,684.72,276.51,685.2,276.52,685.96 V688.22 C276.52,688.61,276.52,688.93,276.92,689.26 C277.26,689.54,277.64,689.56,277.86,689.57 C277.91,689.58,277.95,689.62,277.95,689.68 C277.95,689.78,277.89,689.78,277.79,689.79 C277.13,689.83,276.66,690.19,276.55,690.68 C276.52,690.79,276.52,690.81,276.52,691.16 V693.13 C276.52,693.55,276.52,693.87,276.04,694.24 C275.64,694.55,274.95,694.65,274.61,694.65 C274.52,694.65,274.41,694.65,274.41,694.54 C274.41,694.44,274.47,694.44,274.57,694.43 C275.2,694.39,275.69,694.07,275.82,693.57 C275.85,693.48,275.85,693.46,275.85,693.1 V691.02 C275.85,690.56,275.93,690.39,276.25,690.07 C276.46,689.86,276.74,689.76,277.02,689.68 C276.21,689.46,275.85,689,275.85,688.42 Z " /></g>  </g>
</svg>
